<svg xmlns="http://www.w3.org/2000/svg" xmlns:xlink="http://www.w3.org/1999/xlink" width="500" zoomAndPan="magnify" viewBox="0 0 375 374.999991" height="500" preserveAspectRatio="xMidYMid meet" version="1.0"><defs><g/><clipPath id="7917b237b8"><path d="M 34.011719 31.921875 L 335.722656 31.921875 L 335.722656 333.636719 L 34.011719 333.636719 Z M 34.011719 31.921875 " clip-rule="nonzero"/></clipPath></defs><g clip-path="url(#7917b237b8)"><path fill="#122620" d="M 184.605469 333.109375 C 101.40625 333.109375 34.011719 265.25 34.011719 182.515625 C 34.011719 99.78125 101.40625 31.921875 184.605469 31.921875 C 267.800781 31.921875 335.195312 99.316406 335.195312 182.515625 C 335.195312 265.710938 267.335938 333.109375 184.605469 333.109375 Z M 184.605469 41.21875 C 106.519531 41.21875 43.308594 104.429688 43.308594 182.515625 C 43.308594 260.601562 106.519531 323.8125 184.605469 323.8125 C 262.6875 323.8125 325.898438 260.601562 325.898438 182.515625 C 325.898438 104.429688 262.222656 41.21875 184.605469 41.21875 Z M 184.605469 41.21875 " fill-opacity="1" fill-rule="nonzero"/></g><path stroke-linecap="butt" transform="matrix(2.358946, 0, 0, 2.358946, -2.660554, 32.470483)" fill="none" stroke-linejoin="miter" d="M 53.365827 70.430939 L 53.186986 70.03186 C 51.969878 66.261307 52.627282 63.24917 48.538791 53.114878 C 44.448643 42.821617 37.665954 34.962573 28.849782 28.358724 L 19.29341 21.397194 C 18.135915 20.579164 16.759837 19.941631 16.340886 18.544026 C 17.657351 16.590029 23.782636 14.795001 26.634148 13.895831 C 30.565326 12.739991 34.314351 11.681852 38.325014 10.625369 C 42.97321 9.567229 58.752567 5.796677 63.579604 5.796677 C 58.673083 26.88329 56.876399 41.266699 54.263341 61.932706 Z M 13.56886 17.966107 C 13.56886 20.021116 14.704828 21.077599 15.941807 21.975113 L 23.363686 27.282369 C 27.612802 30.473347 33.916928 34.801948 37.348015 39.132205 C 42.574131 45.754269 46.084702 51.399335 48.618275 60.457272 C 50.413304 66.920367 51.969878 76.076005 51.969878 83.098804 L 50.573929 106.298384 C 51.151848 106.63785 51.310818 107.116414 51.969878 107.116414 C 53.764906 107.116414 53.685421 103.526357 53.844391 101.890298 L 56.538589 75.339116 C 56.876399 72.885027 56.957539 70.929374 57.275478 68.556426 C 58.512457 59.818083 59.330487 51.639445 60.787705 42.563292 L 65.215662 17.646512 C 65.455772 16.091594 67.330285 6.036787 67.64988 5.318113 C 70.681888 5.318113 72.5564 4.978647 75.429439 4.978647 C 81.553068 4.978647 94.042093 6.775331 100.505188 8.33025 C 102.220732 8.828685 103.358356 9.148279 104.095244 9.148279 C 104.754305 9.148279 104.992759 8.828685 104.992759 7.75233 C 104.992759 4.321243 80.317745 1.96651 77.045627 1.628701 C 76.567063 1.628701 76.148113 1.628701 75.588408 1.628701 C 73.694024 1.628701 71.499917 1.708185 69.784373 1.708185 C 69.285939 1.708185 68.886859 1.708185 68.467909 1.708185 C 66.192661 1.54756 67.989345 0.890156 65.773711 0.890156 C 64.397633 0.890156 65.535257 1.96651 63.001684 2.20662 C 49.755899 3.602569 36.529986 6.614706 23.941605 10.943307 L 17.897461 13.47688 C 16.580996 14.29491 13.56886 16.091594 13.56886 17.966107 Z M 65.358072 66.680257 C 67.891645 66.680257 66.914647 63.888359 67.413082 61.773737 C 67.732676 59.818083 68.469565 58.182024 69.287594 56.786075 C 70.584188 54.671453 71.003138 54.671453 74.116287 54.671453 C 75.013801 54.671453 76.230909 54.750937 77.287393 54.750937 C 78.923452 54.750937 80.239916 54.572097 80.239916 53.434473 C 80.239916 52.37799 77.706343 52.217364 75.331739 52.217364 C 73.93579 52.217364 72.559712 52.298505 71.821167 52.298505 C 69.287594 52.298505 68.789159 53.853423 67.572051 54.671453 C 67.572051 53.595098 67.732676 53.674583 67.732676 52.536959 C 67.732676 51.718929 67.732676 50.741931 67.812161 49.923901 C 68.070486 47.630438 68.469565 46.073864 66.255586 46.073864 C 64.460558 46.073864 64.301589 54.572097 64.301589 56.047531 C 64.381074 58.10254 64.301589 60.137678 64.381074 62.093331 C 64.381074 62.671251 63.722013 66.680257 65.358072 66.680257 Z M 77.539094 58.741729 C 77.539094 61.694252 77.777548 63.07033 80.809556 63.07033 C 83.18416 63.07033 85.717733 55.390126 87.254436 54.331987 C 87.254436 57.844215 89.867493 62.093331 93.955985 62.093331 C 95.35359 62.093331 96.908508 61.613111 98.544567 60.457272 L 100.998655 58.501619 C 105.148416 54.492612 104.668196 52.457474 103.432872 52.457474 C 102.952653 52.457474 102.374733 52.697584 101.975654 53.275504 C 100.818159 54.492612 100.579705 55.229501 99.023131 56.627106 C 97.228102 58.422134 95.512559 59.399133 93.955985 59.399133 C 92.240441 59.399133 90.784879 58.10254 90.125818 55.150016 C 89.38893 52.038524 90.784879 48.367327 87.91184 48.367327 C 86.855357 48.367327 83.503754 55.310642 81.867695 57.844215 L 81.208635 58.821213 C 80.809556 59.319648 81.049666 59.000054 80.809556 59.240164 C 80.809556 56.547621 81.94718 53.434473 83.005319 51.718929 C 85.378267 47.630438 87.014326 46.492814 88.251306 46.492814 C 89.786353 46.492814 90.784879 48.367327 91.920847 48.367327 C 94.035469 48.367327 91.920847 43.719131 88.070809 43.719131 C 82.36613 43.719131 77.539094 54.093533 77.539094 58.741729 Z M 101.311626 58.10254 C 101.311626 60.876223 100.912547 65.524418 103.02717 67.577772 C 103.765714 68.316316 104.504259 68.635911 105.242804 68.635911 C 109.65089 68.635911 114.477926 57.185154 115.695035 54.492612 C 116.513064 52.697584 119.286747 47.231359 117.172124 47.231359 C 115.61555 47.231359 114.877005 50.32298 114.058976 51.879555 C 112.762382 54.671453 108.594406 64.706389 105.322289 65.524418 C 104.264149 60.876223 104.982823 57.683589 105.800852 52.856553 C 106.299287 49.504951 107.516396 46.572299 106.618882 44.697786 C 106.060833 44.618301 106.060833 44.457676 105.322289 44.457676 C 102.8682 44.457676 101.311626 54.750937 101.311626 58.10254 Z M 122.548929 52.217364 C 123.126849 50.164011 125.821047 46.971378 128.035025 46.572299 C 127.794916 49.185356 124.603938 51.14101 122.548929 52.217364 Z M 118.877732 54.173018 C 118.877732 56.466481 118.798248 58.501619 120.753901 60.457272 C 122.14985 61.853221 123.785909 62.431141 125.501452 62.431141 C 130.489114 62.431141 136.114308 57.445136 139.146316 54.413128 C 139.884861 53.513958 139.884861 53.434473 139.62488 52.217364 C 137.190663 52.217364 138.488912 52.536959 135.137309 55.150016 C 134.577605 55.568967 134.31928 55.888561 133.66022 56.386996 C 132.044032 57.604105 128.612945 59.978709 125.741562 59.978709 C 124.762908 59.978709 123.785909 59.639243 123.047364 58.900698 C 121.651415 57.52462 121.830255 56.208156 121.830255 54.492612 C 124.363828 54.331987 127.296481 51.959039 128.612945 50.501821 C 131.126647 47.310843 131.126647 44.038726 127.53659 44.038726 C 123.62694 44.038726 118.877732 50.08287 118.877732 54.173018 Z M 136.68726 60.715597 C 136.68726 66.022853 136.847885 76.076005 141.275842 76.076005 C 143.31098 76.076005 144.867555 72.964512 145.765069 71.568563 C 147.560097 68.556426 149.774075 62.83022 151.489619 59.319648 C 151.888698 58.501619 154.422271 53.754067 154.422271 53.275504 C 154.422271 52.856553 154.102677 52.37799 153.683726 52.37799 C 153.284647 52.37799 152.786212 52.697584 152.307648 53.674583 C 149.67472 58.34265 147.319987 64.0672 144.867555 68.79488 C 143.968385 70.671049 142.812545 72.885027 141.017517 73.862026 C 137.34632 66.840883 141.915031 41.425668 144.208494 33.167545 C 144.448604 32.349515 146.583098 27.621835 143.8889 27.621835 C 141.754406 27.621835 141.017517 31.710326 140.278972 34.065059 C 138.243834 41.584637 136.68726 52.616443 136.68726 60.715597 Z M 136.68726 60.715597 " stroke="#fffef9" stroke-width="6.128468" stroke-opacity="1" stroke-miterlimit="4"/><g fill="#122620" fill-opacity="1"><g transform="translate(21.629221, 190.51988)"><g><path d="M 101.578125 8.09375 L 101.1875 7.125 C 98.296875 -1.734375 99.84375 -8.859375 90.203125 -32.765625 C 80.5625 -57.046875 64.578125 -75.5625 43.75 -91.171875 L 21.203125 -107.546875 C 18.5 -109.484375 15.234375 -111.03125 14.265625 -114.296875 C 17.34375 -118.921875 31.796875 -123.171875 38.546875 -125.28125 C 47.796875 -127.984375 56.671875 -130.484375 66.109375 -133 C 77.09375 -135.5 114.296875 -144.375 125.671875 -144.375 C 114.109375 -94.640625 109.875 -60.71875 103.703125 -11.953125 Z M 7.703125 -115.65625 C 7.703125 -110.828125 10.40625 -108.328125 13.296875 -106.203125 L 30.84375 -93.671875 C 40.859375 -86.15625 55.703125 -75.9375 63.796875 -65.734375 C 76.140625 -50.109375 84.421875 -36.8125 90.40625 -15.421875 C 94.640625 -0.1875 98.296875 21.390625 98.296875 37.96875 L 95.03125 92.71875 C 96.375 93.484375 96.765625 94.640625 98.296875 94.640625 C 102.546875 94.640625 102.34375 86.15625 102.734375 82.296875 L 109.09375 19.65625 C 109.875 13.875 110.0625 9.25 110.828125 3.65625 C 113.71875 -16.96875 115.65625 -36.234375 119.125 -57.625 L 129.53125 -116.421875 C 130.109375 -120.078125 134.546875 -143.796875 135.3125 -145.53125 C 142.4375 -145.53125 146.875 -146.296875 153.625 -146.296875 C 168.078125 -146.296875 197.5625 -142.0625 212.796875 -138.390625 C 216.84375 -137.234375 219.546875 -136.46875 221.28125 -136.46875 C 222.8125 -136.46875 223.390625 -137.234375 223.390625 -139.75 C 223.390625 -147.84375 165.1875 -153.421875 157.484375 -154.203125 C 156.3125 -154.203125 155.359375 -154.203125 154 -154.203125 C 149.578125 -154.203125 144.375 -154 140.328125 -154 C 139.171875 -154 138.203125 -154 137.234375 -154 C 131.84375 -154.390625 136.078125 -155.9375 130.875 -155.9375 C 127.59375 -155.9375 130.296875 -153.421875 124.328125 -152.84375 C 93.09375 -149.578125 61.875 -142.4375 32.1875 -132.21875 L 17.921875 -126.25 C 14.84375 -124.328125 7.703125 -120.078125 7.703125 -115.65625 Z M 7.703125 -115.65625 "/></g></g></g><g fill="#122620" fill-opacity="1"><g transform="translate(148.83328, 190.51988)"><g><path d="M 2.703125 -0.765625 C 8.671875 -0.765625 6.359375 -7.328125 7.515625 -12.34375 C 8.28125 -16.96875 10.015625 -20.8125 11.953125 -24.09375 C 15.03125 -29.109375 16 -29.109375 23.328125 -29.109375 C 25.4375 -29.109375 28.328125 -28.90625 30.84375 -28.90625 C 34.6875 -28.90625 37.78125 -29.296875 37.78125 -32 C 37.78125 -34.5 31.796875 -34.890625 26.21875 -34.890625 C 22.9375 -34.890625 19.65625 -34.6875 17.921875 -34.6875 C 11.953125 -34.6875 10.796875 -31.03125 7.90625 -29.109375 C 7.90625 -31.609375 8.28125 -31.421875 8.28125 -34.109375 C 8.28125 -36.046875 8.28125 -38.359375 8.484375 -40.28125 C 9.0625 -45.6875 10.015625 -49.34375 4.8125 -49.34375 C 0.578125 -49.34375 0.1875 -29.296875 0.1875 -25.828125 C 0.390625 -21.015625 0.1875 -16.1875 0.390625 -11.5625 C 0.390625 -10.21875 -1.15625 -0.765625 2.703125 -0.765625 Z M 2.703125 -0.765625 "/></g></g></g><g fill="#122620" fill-opacity="1"><g transform="translate(180.248847, 190.51988)"><g><path d="M 0 -19.46875 C 0 -12.53125 0.578125 -9.25 7.703125 -9.25 C 13.296875 -9.25 19.28125 -27.375 22.9375 -29.875 C 22.9375 -21.59375 29.109375 -11.5625 38.75 -11.5625 C 42.015625 -11.5625 45.6875 -12.71875 49.53125 -15.421875 L 55.3125 -20.046875 C 65.15625 -29.484375 64 -34.3125 61.109375 -34.3125 C 59.9375 -34.3125 58.59375 -33.734375 57.625 -32.375 C 54.9375 -29.484375 54.359375 -27.75 50.6875 -24.484375 C 46.453125 -20.234375 42.40625 -17.921875 38.75 -17.921875 C 34.6875 -17.921875 31.21875 -21.015625 29.6875 -27.953125 C 27.953125 -35.265625 31.21875 -43.953125 24.484375 -43.953125 C 21.96875 -43.953125 14.078125 -27.5625 10.21875 -21.59375 L 8.671875 -19.28125 C 7.703125 -18.125 8.28125 -18.890625 7.703125 -18.3125 C 7.703125 -24.671875 10.40625 -32 12.921875 -36.046875 C 18.5 -45.6875 22.359375 -48.375 25.25 -48.375 C 28.90625 -48.375 31.21875 -43.953125 33.921875 -43.953125 C 38.9375 -43.953125 33.921875 -54.9375 24.859375 -54.9375 C 11.375 -54.9375 0 -30.453125 0 -19.46875 Z M 0 -19.46875 "/></g></g></g><g fill="#122620" fill-opacity="1"><g transform="translate(236.141539, 190.51988)"><g><path d="M 0.1875 -21.015625 C 0.1875 -14.453125 -0.765625 -3.46875 4.234375 1.34375 C 5.96875 3.078125 7.703125 3.859375 9.4375 3.859375 C 19.859375 3.859375 31.21875 -23.125 34.109375 -29.484375 C 36.046875 -33.734375 42.59375 -46.640625 37.59375 -46.640625 C 33.921875 -46.640625 32.1875 -39.328125 30.265625 -35.65625 C 27.171875 -29.109375 17.34375 -5.390625 9.640625 -3.46875 C 7.125 -14.453125 8.859375 -21.96875 10.796875 -33.34375 C 11.953125 -41.25 14.84375 -48.1875 12.71875 -52.625 C 11.375 -52.8125 11.375 -53.203125 9.640625 -53.203125 C 3.859375 -53.203125 0.1875 -28.90625 0.1875 -21.015625 Z M 0.1875 -21.015625 "/></g></g></g><g fill="#122620" fill-opacity="1"><g transform="translate(277.579244, 190.51988)"><g><path d="M 8.859375 -34.890625 C 10.21875 -39.703125 16.578125 -47.21875 21.78125 -48.1875 C 21.203125 -42.015625 13.6875 -37.390625 8.859375 -34.890625 Z M 0.1875 -30.265625 C 0.1875 -24.859375 0 -20.046875 4.625 -15.421875 C 7.90625 -12.140625 11.75 -10.796875 15.8125 -10.796875 C 27.5625 -10.796875 40.859375 -22.546875 48 -29.6875 C 49.734375 -31.796875 49.734375 -32 49.15625 -34.890625 C 43.375 -34.890625 46.453125 -34.109375 38.546875 -27.953125 C 37.203125 -26.984375 36.625 -26.21875 35.078125 -25.0625 C 31.21875 -22.171875 23.125 -16.578125 16.390625 -16.578125 C 14.078125 -16.578125 11.75 -17.34375 10.015625 -19.078125 C 6.75 -22.359375 7.125 -25.4375 7.125 -29.484375 C 13.109375 -29.875 20.046875 -35.46875 23.125 -38.9375 C 29.109375 -46.453125 29.109375 -54.15625 20.625 -54.15625 C 11.375 -54.15625 0.1875 -39.90625 0.1875 -30.265625 Z M 0.1875 -30.265625 "/></g></g></g><g fill="#122620" fill-opacity="1"><g transform="translate(319.402415, 190.51988)"><g><path d="M 0.390625 -14.84375 C 0.390625 -2.3125 0.765625 21.390625 11.171875 21.390625 C 16 21.390625 19.65625 14.078125 21.78125 10.796875 C 26.015625 3.65625 31.21875 -9.828125 35.265625 -18.125 C 36.234375 -20.046875 42.21875 -31.21875 42.21875 -32.375 C 42.21875 -33.34375 41.4375 -34.5 40.484375 -34.5 C 39.515625 -34.5 38.359375 -33.734375 37.203125 -31.421875 C 31.03125 -20.4375 25.4375 -6.9375 19.65625 4.234375 C 17.546875 8.671875 14.84375 13.875 10.59375 16.1875 C 1.921875 -0.390625 12.71875 -60.328125 18.125 -79.796875 C 18.703125 -81.71875 23.703125 -92.90625 17.34375 -92.90625 C 12.34375 -92.90625 10.59375 -83.265625 8.859375 -77.671875 C 4.046875 -59.9375 0.390625 -33.921875 0.390625 -14.84375 Z M 0.390625 -14.84375 "/></g></g></g><path fill="#fffef9" d="M 276.5 318.074219 C 273.148438 320.335938 269.722656 322.472656 266.214844 324.480469 C 262.707031 326.492188 259.128906 328.371094 255.484375 330.113281 C 251.839844 331.859375 248.132812 333.46875 244.367188 334.941406 C 240.605469 336.414062 236.789062 337.742188 232.925781 338.933594 C 229.0625 340.125 225.160156 341.167969 221.222656 342.070312 C 217.28125 342.972656 213.3125 343.726562 209.316406 344.335938 C 205.320312 344.945312 201.308594 345.40625 197.277344 345.71875 C 193.246094 346.027344 189.210938 346.191406 185.167969 346.207031 C 181.125 346.21875 177.089844 346.085938 173.058594 345.800781 C 169.023438 345.515625 165.007812 345.082031 161.007812 344.5 C 157.007812 343.917969 153.035156 343.191406 149.089844 342.316406 C 145.144531 341.441406 141.234375 340.421875 137.363281 339.257812 C 133.492188 338.097656 129.667969 336.789062 125.894531 335.34375 C 122.121094 333.898438 118.402344 332.316406 114.746094 330.59375 C 111.089844 328.875 107.5 327.019531 103.976562 325.035156 C 100.457031 323.050781 97.015625 320.9375 93.648438 318.695312 L 113.925781 288.242188 C 116.539062 289.980469 119.214844 291.625 121.953125 293.167969 C 124.6875 294.710938 127.476562 296.152344 130.320312 297.488281 C 133.160156 298.824219 136.050781 300.054688 138.984375 301.179688 C 141.917969 302.300781 144.886719 303.316406 147.894531 304.21875 C 150.902344 305.125 153.941406 305.917969 157.007812 306.597656 C 160.074219 307.277344 163.160156 307.84375 166.269531 308.292969 C 169.378906 308.746094 172.5 309.082031 175.632812 309.304688 C 178.765625 309.523438 181.902344 309.628906 185.042969 309.617188 C 188.183594 309.609375 191.320312 309.480469 194.453125 309.238281 C 197.585938 308.996094 200.703125 308.636719 203.808594 308.164062 C 206.914062 307.691406 210 307.105469 213.058594 306.40625 C 216.121094 305.703125 219.152344 304.890625 222.15625 303.96875 C 225.15625 303.042969 228.121094 302.007812 231.046875 300.863281 C 233.972656 299.722656 236.851562 298.472656 239.683594 297.113281 C 242.519531 295.757812 245.296875 294.300781 248.023438 292.738281 C 250.75 291.175781 253.414062 289.515625 256.015625 287.757812 Z M 276.5 318.074219 " fill-opacity="1" fill-rule="nonzero"/><g fill="#122620" fill-opacity="1"><g transform="translate(104.212366, 314.575979)"><g><path d="M 19.828125 -6.3125 L 14.90625 -8.984375 L 7.734375 4.203125 L 5.109375 2.78125 L 12.28125 -10.40625 L 7.375 -13.078125 L 8.65625 -15.4375 L 21.109375 -8.671875 Z M 19.828125 -6.3125 "/></g></g></g><g fill="#122620" fill-opacity="1"><g transform="translate(137.934587, 329.967741)"><g><path d="M 14.3125 -0.515625 L 5.65625 -2.6875 L 3.046875 0.765625 L 0.03125 0 L 11.890625 -15.25 L 14.859375 -14.515625 L 18.0625 4.515625 L 14.96875 3.75 Z M 13.84375 -3.375 L 12.5 -11.8125 L 7.375 -5 Z M 13.84375 -3.375 "/></g></g></g><g fill="#122620" fill-opacity="1"><g transform="translate(178.352792, 336.88959)"><g><path d="M 5.296875 -2.71875 L 12.953125 -2.75 L 12.96875 -0.046875 L 2.328125 -0.015625 L 2.265625 -17.703125 L 5.25 -17.703125 Z M 5.296875 -2.71875 "/></g></g></g><g fill="#122620" fill-opacity="1"><g transform="translate(214.084528, 334.255463)"><g><path d="M 10.859375 -18.1875 L 1.515625 -15.84375 L 2.671875 -11.203125 L 11.046875 -13.3125 L 11.703125 -10.71875 L 3.328125 -8.609375 L 4.515625 -3.875 L 14.171875 -6.296875 L 14.8125 -3.703125 L 2.265625 -0.5625 L -2.03125 -17.71875 L 10.203125 -20.78125 Z M 10.859375 -18.1875 "/></g></g></g><g fill="#122620" fill-opacity="1"><g transform="translate(251.089941, 322.069874)"><g><path d="M -1.28125 -19.546875 C 0.726562 -20.628906 2.828125 -21.070312 5.015625 -20.875 L 5.1875 -17.96875 C 3.070312 -18.082031 1.285156 -17.75 -0.171875 -16.96875 C -0.953125 -16.539062 -1.488281 -16.0625 -1.78125 -15.53125 C -2.082031 -15.007812 -2.09375 -14.488281 -1.8125 -13.96875 C -1.539062 -13.457031 -1.097656 -13.128906 -0.484375 -12.984375 C 0.128906 -12.835938 0.789062 -12.847656 1.5 -13.015625 C 2.21875 -13.179688 3.007812 -13.332031 3.875 -13.46875 C 4.738281 -13.601562 5.554688 -13.691406 6.328125 -13.734375 C 7.109375 -13.773438 7.867188 -13.597656 8.609375 -13.203125 C 9.359375 -12.816406 9.96875 -12.1875 10.4375 -11.3125 C 11.175781 -9.945312 11.21875 -8.5625 10.5625 -7.15625 C 9.914062 -5.757812 8.726562 -4.597656 7 -3.671875 C 5.800781 -3.023438 4.523438 -2.625 3.171875 -2.46875 C 1.828125 -2.3125 0.535156 -2.382812 -0.703125 -2.6875 L -0.78125 -5.578125 C 0.382812 -5.273438 1.546875 -5.175781 2.703125 -5.28125 C 3.859375 -5.394531 4.859375 -5.679688 5.703125 -6.140625 C 6.617188 -6.628906 7.242188 -7.179688 7.578125 -7.796875 C 7.910156 -8.421875 7.921875 -9.023438 7.609375 -9.609375 C 7.316406 -10.148438 6.863281 -10.484375 6.25 -10.609375 C 5.644531 -10.742188 4.984375 -10.726562 4.265625 -10.5625 C 3.546875 -10.40625 2.757812 -10.253906 1.90625 -10.109375 C 1.050781 -9.960938 0.238281 -9.851562 -0.53125 -9.78125 C -1.3125 -9.71875 -2.070312 -9.878906 -2.8125 -10.265625 C -3.5625 -10.660156 -4.164062 -11.285156 -4.625 -12.140625 C -5.34375 -13.460938 -5.390625 -14.796875 -4.765625 -16.140625 C -4.148438 -17.492188 -2.988281 -18.628906 -1.28125 -19.546875 Z M -1.28125 -19.546875 "/></g></g></g></svg>